<svg width="695" height="491" viewBox="0 0 695 491" fill="none" xmlns="http://www.w3.org/2000/svg">
<path d="M113.213 130.473L144.146 161.869L65.0414 242.157L147.342 325.688L113.079 359.484L0.332031 245.046L113.213 130.473ZM309.16 361.419L338.479 391.176L241.769 490.1L133.705 380.419L167.485 346.133L245.852 425.676L309.16 361.419ZM361.75 308.041L392.03 338.775L485.397 245.978L241.761 0L132.976 110.413L163.909 141.81L244.018 60.4987L424.829 244.018L361.75 308.041Z" fill="#0D6992"/>
<path d="M582.864 359.626L552.236 328.23L630.563 247.942L549.071 164.411L582.996 130.617L694.639 245.053L582.864 359.626ZM388.838 128.681L359.807 98.9238L455.569 0L562.572 109.682L529.125 143.966L451.526 64.4252L388.838 128.681ZM336.763 182.059L306.782 151.326L214.33 244.122L455.577 490.1L563.294 379.685L532.666 348.289L453.341 429.6L274.304 246.083L336.763 182.059Z" fill="#289842"/>
</svg>
